<?xml version="1.0" encoding="utf-8"?>
<!-- Svg Vector Icons : http://www.onlinewebfonts.com/icon -->
<!DOCTYPE svg PUBLIC "-//W3C//DTD SVG 1.1//EN" "http://www.w3.org/Graphics/SVG/1.1/DTD/svg11.dtd">
<svg version="1.1" xmlns="http://www.w3.org/2000/svg" xmlns:xlink="http://www.w3.org/1999/xlink" x="0px" y="0px" viewBox="0 0 1000 1000" enable-background="new 0 0 1000 1000" xml:space="preserve">
<metadata> Svg Vector Icons : http://www.onlinewebfonts.com/icon </metadata>
<g><path d="M963.4,647c-18,0-38.7,14.7-38.7,32.7v131.8c0,62.6-50.5,113.2-112.5,113.2H187.9c-62.2,0-112.5-50.6-112.5-113.2v-623c0-62.6,50.3-113.2,112.5-113.2h276.5c18,0,32.5,1.6,32.5-16.3c0-18-14.5-49-32.5-49H139.8C68.1,10,10,68.5,10,140.7v718.7C10,931.5,68.1,990,139.8,990h720.3c71.7,0,129.8-58.5,129.8-130.7V679.7C990,661.7,981.3,647,963.4,647z M211.7,755c-5.2,35.6,19.1,59.5,54.4,52.9l207.1-37.4l-229.5-231L211.7,755z M641.6,247.2c25.5-25.6,66.5-25.6,92,0l45.9,46.1c25.3,25.6,25.3,67,0,92.4L572.8,593.6c-25.3,25.5-66.5,25.5-91.8,0l-45.9-46.2c-25.3-25.5-25.3-66.8,0-92.4L641.6,247.2z M526.9,732.3l390.2-392.8l-229.5-231L297.5,501.1L526.9,732.3z M966.5,274.1c38.1-38.2,26.8-89-11.3-127.2l-91.8-92.4c-38.1-38.2-99.6-38.2-137.7,0l229.5,231L966.5,274.1z"/></g>
</svg>